# xmcd
#
# Track frame offsets: 
#        222
#        20220
#        37575
#        53652
#        65722
#        88160
#        102570
#        113167
#        128207
#        141900
#        155905
#        171175
#        191775
#        218210
#        232937
#        252205
#        283377
#        310030
#        326042
#        345135
#
# Disc length: 4726 seconds
#
# Revision: 2
# Processed by: cddbd v1.5.2PL0 Copyright (c) Steve Scherf et al.
# Submitted via: ExactAudioCopyFreeDBPlugin 1.0
#
DISCID=2c127414
DTITLE=O.V. Wright - The Wright Stuff and O.V. Wright Live
DYEAR=1990
DGENRE=Soul
TTITLE0=Into Something (Can't Shake Loose)
TTITLE1=I Feel Love Growin'
TTITLE2=Precious, Precious
TTITLE3=Trying to Live My Life Without You
TTITLE4=You Good Thing is About to End
TTITLE5=The Bottom Line
TTITLE6=I Don't Do Windows
TTITLE7=I Don't Know Why
TTITLE8=The Time We Have
TTITLE9=You Gotta' Have Love
TTITLE10=Rhymes
TTITLE11=Without You
TTITLE12=I'd Rather Be Blind, Crippled and Crazy
TTITLE13=Ace of Spades
TTITLE14=Eight Men and Four Women
TTITLE15=Love and Happiness
TTITLE16=God Blessed Our Love
TTITLE17=When a Man Loves a Woman
TTITLE18=That's How Strong My Love Is
TTITLE19=You're Gonna Make Me Cry
EXTD=
EXTT0=
EXTT1=
EXTT2=
EXTT3=
EXTT4=
EXTT5=
EXTT6=
EXTT7=
EXTT8=
EXTT9=
EXTT10=
EXTT11=
EXTT12=
EXTT13=
EXTT14=
EXTT15=
EXTT16=
EXTT17=
EXTT18=
EXTT19=
PLAYORDER=
